<mxfile host="app.diagrams.net" modified="2024-04-07T18:00:17.987Z" agent="Mozilla/5.0 (Windows NT 10.0; Win64; x64) AppleWebKit/537.36 (KHTML, like Gecko) Chrome/123.0.0.0 Safari/537.36" version="24.2.2" etag="ZO8cPiYB0Wr3N5sWGlAM" type="github">
  <diagram name="PÃ¡gina-1" id="Tq-4VYSkCDS3YtiPt24H">
    <mxGraphModel>
      <root>
        <mxCell id="0" />
        <mxCell id="1" parent="0" />
      </root>
    </mxGraphModel>
  </diagram>
</mxfile>
